<svg width="14" height="14" viewBox="0 0 14 14" fill="none" xmlns="http://www.w3.org/2000/svg">
<path fill-rule="evenodd" clip-rule="evenodd" d="M7.53033 10.7803C7.23744 11.0732 6.76256 11.0732 6.46967 10.7803L3.96967 8.28033C3.67678 7.98744 3.67678 7.51256 3.96967 7.21967C4.26256 6.92678 4.73744 6.92678 5.03033 7.21967L6.25 8.43934L6.25 0.75C6.25 0.335786 6.58579 0 7 0C7.41421 0 7.75 0.335787 7.75 0.75L7.75 8.43934L8.96967 7.21967C9.26256 6.92678 9.73744 6.92678 10.0303 7.21967C10.3232 7.51256 10.3232 7.98744 10.0303 8.28033L7.53033 10.7803ZM3.25 3.00002C3.66421 3.00002 4 3.3358 4 3.75002C4 4.16423 3.66421 4.50002 3.25 4.50002H3C2.17157 4.50002 1.5 5.17159 1.5 6.00002V11C1.5 11.8284 2.17157 12.5 3 12.5H11C11.8284 12.5 12.5 11.8284 12.5 11V6.00002C12.5 5.17159 11.8284 4.50002 11 4.50002H10.75C10.3358 4.50002 10 4.16423 10 3.75002C10 3.3358 10.3358 3.00002 10.75 3.00002H11C12.6569 3.00002 14 4.34316 14 6.00002V11C14 12.6569 12.6569 14 11 14H3C1.34315 14 0 12.6569 0 11V6.00002C0 4.34316 1.34315 3.00002 3 3.00002H3.25Z" fill="black" fill-opacity="0.5"/>
</svg>
