<svg width="14" height="14" viewBox="0 0 14 14" fill="none" xmlns="http://www.w3.org/2000/svg">
<path fill-rule="evenodd" clip-rule="evenodd" d="M10.4225 0C12.3979 0 13.9992 1.60135 13.9992 3.57671C13.9992 3.84774 13.8916 4.10767 13.6999 4.29931L13.1714 4.8278L11.2002 6.799C11.2001 6.79911 11.2 6.79921 11.1999 6.79931L6.14152 11.8577C5.72272 12.2765 5.18932 12.562 4.60855 12.6781L1.97011 13.2058C1.27039 13.3458 0.653469 12.7289 0.793413 12.0291L1.3211 9.39069C1.43726 8.80992 1.72272 8.27652 2.14152 7.85772L7.19993 2.79931C7.20013 2.79911 7.20033 2.79891 7.20053 2.79871L9.69993 0.299313C9.89157 0.107666 10.1515 0 10.4225 0ZM8.11203 4.00853L3.20218 8.91838C2.99278 9.12778 2.85005 9.39448 2.79197 9.68486L2.41137 11.5879L4.31438 11.2073C4.56846 11.1564 4.80442 11.0408 4.99972 10.8724C5.02762 10.8484 5.05469 10.8232 5.08086 10.7971L9.99071 5.88721C9.90064 4.8915 9.10774 4.0986 8.11203 4.00853ZM11.2108 4.66715C10.8494 3.82518 10.1741 3.14986 9.33209 2.78847L10.612 1.50853C11.6077 1.5986 12.4006 2.3915 12.4907 3.38721L11.2108 4.66715Z" fill="black" fill-opacity="0.85"/>
</svg>
