<svg width="14" height="16" viewBox="0 0 14 16" fill="none" xmlns="http://www.w3.org/2000/svg">
<path fill-rule="evenodd" clip-rule="evenodd" d="M9.50028 2.25461L9.50002 2.25L9.50028 2.24539C9.5027 2.21458 9.51259 2.08821 9.13845 1.89438C8.70325 1.66892 7.96692 1.5 7.00002 1.5C6.03311 1.5 5.29678 1.66892 4.86158 1.89438C4.48744 2.08821 4.49733 2.21458 4.49975 2.24539L4.50002 2.25L4.49975 2.25461C4.49733 2.28542 4.48744 2.41179 4.86158 2.60562C5.29678 2.83108 6.03311 3 7.00002 3C7.96692 3 8.70325 2.83108 9.13845 2.60562C9.51259 2.41179 9.5027 2.28542 9.50028 2.25461ZM7.00002 4.5C7.50629 4.5 7.9906 4.46061 8.43642 4.38183L9.27641 6.73378L9.52889 7.44072L10.2461 7.66239C10.8942 7.86269 11.3012 8.10213 11.5235 8.31142C11.7146 8.49136 11.75 8.62229 11.75 8.74994C11.75 8.89024 11.6949 9.23813 10.8129 9.62802C9.94435 10.012 8.61256 10.2499 7 10.2499C5.38744 10.2499 4.05565 10.012 3.18708 9.62802C2.30512 9.23813 2.25 8.89024 2.25 8.74994C2.25 8.62229 2.28544 8.49136 2.47654 8.31142C2.69881 8.10212 3.10585 7.86268 3.75394 7.66238L4.47115 7.44072L4.72363 6.73377L5.56361 4.38183C6.00943 4.46061 6.49374 4.5 7.00002 4.5ZM11 2.25C11 2.98768 10.5669 3.54398 9.86388 3.91888L10.689 6.22928C12.2417 6.70917 13.25 7.54939 13.25 8.74994C13.25 10.6029 10.8482 11.5975 7.75002 11.7337V15C7.75002 15.4142 7.41423 15.75 7.00002 15.75C6.5858 15.75 6.25002 15.4142 6.25002 15V11.7337C3.15184 11.5975 0.75 10.6029 0.75 8.74994C0.75 7.54938 1.7583 6.70915 3.31101 6.22927L4.13615 3.91887C3.43315 3.54398 3.00002 2.98768 3.00002 2.25C3.00002 0.75 4.79088 0 7.00002 0C9.20915 0 11 0.75 11 2.25Z" fill="black" fill-opacity="0.85"/>
</svg>
