<svg width="16" height="16" viewBox="0 0 16 16" fill="none" xmlns="http://www.w3.org/2000/svg">
<path fill-rule="evenodd" clip-rule="evenodd" d="M8.99996 2H6.99996C6.72381 2 6.49996 2.22386 6.49996 2.5V3H9.49996V2.5C9.49996 2.22386 9.2761 2 8.99996 2ZM11 3V2.5C11 1.39543 10.1045 0.5 8.99996 0.5H6.99996C5.89539 0.5 4.99996 1.39543 4.99996 2.5V3H4.00117H2.49987H2.25C1.83579 3 1.5 3.33579 1.5 3.75C1.5 4.16421 1.83579 4.5 2.25 4.5H2.56237L2.88007 12.1249C2.94703 13.7318 4.2692 15 5.87747 15H10.1223C11.7305 15 13.0527 13.7318 13.1197 12.1249L13.4374 4.5H13.75C14.1642 4.5 14.5 4.16421 14.5 3.75C14.5 3.33579 14.1642 3 13.75 3H13.4999H11.9986H11ZM11.9361 4.5H11H9.49996H6.49996H4.99996H4.06367L4.37877 12.0624C4.41225 12.8659 5.07333 13.5 5.87747 13.5H10.1223C10.9264 13.5 11.5875 12.8659 11.621 12.0624L11.9361 4.5ZM5.74976 6.5V11.5C5.74976 11.9142 6.08554 12.25 6.49976 12.25C6.91397 12.25 7.24976 11.9142 7.24976 11.5V6.5C7.24976 6.08579 6.91397 5.75 6.49976 5.75C6.08554 5.75 5.74976 6.08579 5.74976 6.5ZM9.49976 5.75C9.91397 5.75 10.2498 6.08579 10.2498 6.5V11.5C10.2498 11.9142 9.91397 12.25 9.49976 12.25C9.08554 12.25 8.74976 11.9142 8.74976 11.5V6.5C8.74976 6.08579 9.08554 5.75 9.49976 5.75Z" fill="black" fill-opacity="0.85"/>
</svg>
