<svg width="349" height="54" viewBox="0 0 349 54" fill="none" xmlns="http://www.w3.org/2000/svg">
<path d="M35.3077 54H26.0572V7.30477H21.9266C14.3581 7.30477 10.3883 11.1898 10.3883 16.9355C10.3883 23.4608 13.1461 26.4908 18.7978 30.3758L23.4601 33.5567L10.0049 53.9874H0L12.0702 35.7318C5.11993 30.7027 1.21198 25.7867 1.21198 17.4761C1.21198 7.06589 8.32297 0 21.8401 0H35.2953V53.9874L35.3077 54Z" fill="#FC3F1D"/>
<path d="M60.8592 44H55.0178L65.6532 13.7902H72.4091L83.0592 44H77.2179L69.1491 19.9856H68.9131L60.8592 44ZM61.0509 32.155H76.9819V36.5508H61.0509V32.155ZM99.842 37.7899L106.568 21.3427H110.876L101.715 44H97.9834L89.0296 21.3427H93.2926L99.842 37.7899ZM91.9503 21.3427V44H86.8023V21.3427H91.9503ZM107.955 44V21.3427H113.059V44H107.955ZM136.601 12.9642L138.46 16.4159C137.801 16.9862 137.063 17.3993 136.247 17.6549C135.431 17.9106 134.472 18.0778 133.371 18.1565C132.279 18.2253 130.981 18.2745 129.477 18.304C127.785 18.3433 126.403 18.6629 125.332 19.2628C124.26 19.8627 123.439 20.7723 122.868 21.9917C122.298 23.2013 121.924 24.7452 121.747 26.6235H121.998C122.706 25.2369 123.699 24.1797 124.978 23.452C126.256 22.7243 127.756 22.3605 129.477 22.3605C131.355 22.3605 133.012 22.7833 134.448 23.629C135.893 24.4649 137.019 25.6794 137.826 27.2725C138.642 28.8656 139.05 30.793 139.05 33.0549C139.05 35.3855 138.612 37.4064 137.737 39.1175C136.862 40.8187 135.618 42.1316 134.005 43.0559C132.402 43.9803 130.499 44.4425 128.296 44.4425C126.104 44.4425 124.196 43.9656 122.573 43.0117C120.96 42.048 119.711 40.627 118.826 38.7487C117.951 36.8606 117.514 34.5349 117.514 31.7715V29.7359C117.514 24.4059 118.507 20.4281 120.493 17.8024C122.48 15.1768 125.425 13.8394 129.329 13.7902C130.489 13.7705 131.527 13.7656 132.441 13.7755C133.366 13.7853 134.172 13.741 134.861 13.6427C135.549 13.5444 136.129 13.3182 136.601 12.9642ZM128.326 40.1648C129.418 40.1648 130.362 39.8845 131.158 39.324C131.955 38.7536 132.564 37.9472 132.987 36.9048C133.42 35.8624 133.636 34.6283 133.636 33.2024C133.636 31.7961 133.42 30.6013 132.987 29.6179C132.555 28.6247 131.94 27.8675 131.143 27.3463C130.347 26.8251 129.398 26.5645 128.296 26.5645C127.47 26.5645 126.728 26.712 126.069 27.007C125.41 27.302 124.85 27.7347 124.387 28.3051C123.925 28.8754 123.571 29.5687 123.325 30.3849C123.08 31.2012 122.947 32.1403 122.927 33.2024C122.927 35.3363 123.409 37.0327 124.373 38.2914C125.336 39.5403 126.654 40.1648 128.326 40.1648ZM150.113 44.4573C148.677 44.4573 147.384 44.2016 146.234 43.6902C145.093 43.169 144.188 42.402 143.519 41.3891C142.861 40.3762 142.531 39.1273 142.531 37.6424C142.531 36.364 142.767 35.3068 143.239 34.4709C143.711 33.6351 144.355 32.9663 145.171 32.4648C145.988 31.9633 146.907 31.5847 147.93 31.329C148.962 31.0635 150.029 30.8717 151.131 30.7537C152.458 30.616 153.535 30.4931 154.361 30.3849C155.187 30.2669 155.787 30.0899 156.161 29.8539C156.544 29.6081 156.736 29.2295 156.736 28.7181V28.6296C156.736 27.5184 156.407 26.6579 155.748 26.0482C155.089 25.4385 154.14 25.1336 152.901 25.1336C151.593 25.1336 150.556 25.4188 149.788 25.9892C149.031 26.5595 148.52 27.2332 148.254 28.0101L143.269 27.302C143.662 25.9253 144.311 24.7747 145.216 23.8503C146.12 22.9161 147.227 22.2179 148.535 21.7557C149.843 21.2837 151.288 21.0476 152.871 21.0476C153.963 21.0476 155.05 21.1755 156.131 21.4312C157.213 21.6868 158.201 22.1097 159.096 22.6997C159.991 23.2799 160.709 24.0716 161.25 25.0746C161.801 26.0777 162.076 27.3315 162.076 28.8361V44H156.943V40.8876H156.766C156.441 41.5169 155.984 42.107 155.394 42.6577C154.814 43.1985 154.081 43.6361 153.196 43.9705C152.321 44.295 151.293 44.4573 150.113 44.4573ZM151.5 40.5335C152.571 40.5335 153.501 40.3221 154.288 39.8993C155.074 39.4666 155.679 38.8962 156.102 38.1882C156.535 37.4801 156.751 36.7082 156.751 35.8723V33.2024C156.584 33.34 156.299 33.4679 155.895 33.5859C155.502 33.7039 155.059 33.8071 154.568 33.8957C154.076 33.9842 153.589 34.0628 153.107 34.1317C152.626 34.2005 152.208 34.2595 151.854 34.3087C151.057 34.4168 150.344 34.5939 149.715 34.8397C149.085 35.0856 148.589 35.4297 148.225 35.8723C147.861 36.305 147.679 36.8655 147.679 37.5539C147.679 38.5373 148.038 39.2797 148.756 39.7812C149.474 40.2828 150.388 40.5335 151.5 40.5335ZM177.328 44.4425C175.067 44.4425 173.124 43.9459 171.502 42.9527C169.889 41.9595 168.645 40.5876 167.77 38.8372C166.904 37.0769 166.472 35.0511 166.472 32.7598C166.472 30.4587 166.914 28.428 167.799 26.6677C168.684 24.8976 169.933 23.5209 171.546 22.5375C173.169 21.5443 175.086 21.0476 177.299 21.0476C179.138 21.0476 180.765 21.3869 182.181 22.0654C183.607 22.7342 184.743 23.6831 185.589 24.9124C186.435 26.1318 186.916 27.5577 187.034 29.1901H181.931C181.724 28.0986 181.232 27.1889 180.456 26.4612C179.689 25.7237 178.661 25.3549 177.373 25.3549C176.281 25.3549 175.322 25.6499 174.496 26.2399C173.67 26.8201 173.026 27.656 172.564 28.7476C172.111 29.8392 171.885 31.1471 171.885 32.6713C171.885 34.2153 172.111 35.5428 172.564 36.6541C173.016 37.7555 173.65 38.6061 174.467 39.206C175.293 39.796 176.261 40.091 177.373 40.091C178.159 40.091 178.862 39.9435 179.482 39.6485C180.111 39.3436 180.637 38.906 181.06 38.3357C181.483 37.7653 181.773 37.072 181.931 36.2558H187.034C186.907 37.8587 186.435 39.2797 185.618 40.5188C184.802 41.748 183.691 42.7118 182.285 43.41C180.878 44.0983 179.226 44.4425 177.328 44.4425ZM201.302 44.4425C199.04 44.4425 197.098 43.9459 195.476 42.9527C193.863 41.9595 192.619 40.5876 191.744 38.8372C190.878 37.0769 190.446 35.0511 190.446 32.7598C190.446 30.4587 190.888 28.428 191.773 26.6677C192.658 24.8976 193.907 23.5209 195.52 22.5375C197.142 21.5443 199.06 21.0476 201.273 21.0476C203.112 21.0476 204.739 21.3869 206.155 22.0654C207.581 22.7342 208.717 23.6831 209.563 24.9124C210.408 26.1318 210.89 27.5577 211.008 29.1901H205.905C205.698 28.0986 205.206 27.1889 204.429 26.4612C203.662 25.7237 202.635 25.3549 201.346 25.3549C200.255 25.3549 199.296 25.6499 198.47 26.2399C197.644 26.8201 197 27.656 196.538 28.7476C196.085 29.8392 195.859 31.1471 195.859 32.6713C195.859 34.2153 196.085 35.5428 196.538 36.6541C196.99 37.7555 197.624 38.6061 198.441 39.206C199.267 39.796 200.235 40.091 201.346 40.091C202.133 40.091 202.836 39.9435 203.456 39.6485C204.085 39.3436 204.611 38.906 205.034 38.3357C205.457 37.7653 205.747 37.072 205.905 36.2558H211.008C210.88 37.8587 210.408 39.2797 209.592 40.5188C208.776 41.748 207.665 42.7118 206.259 43.41C204.852 44.0983 203.2 44.4425 201.302 44.4425ZM221.913 44.4573C220.477 44.4573 219.184 44.2016 218.033 43.6902C216.893 43.169 215.988 42.402 215.319 41.3891C214.66 40.3762 214.331 39.1273 214.331 37.6424C214.331 36.364 214.567 35.3068 215.039 34.4709C215.511 33.6351 216.155 32.9663 216.971 32.4648C217.788 31.9633 218.707 31.5847 219.73 31.329C220.762 31.0635 221.829 30.8717 222.931 30.7537C224.258 30.616 225.335 30.4931 226.161 30.3849C226.987 30.2669 227.587 30.0899 227.961 29.8539C228.344 29.6081 228.536 29.2295 228.536 28.7181V28.6296C228.536 27.5184 228.207 26.6579 227.548 26.0482C226.889 25.4385 225.94 25.1336 224.701 25.1336C223.393 25.1336 222.355 25.4188 221.588 25.9892C220.831 26.5595 220.32 27.2332 220.054 28.0101L215.068 27.302C215.462 25.9253 216.111 24.7747 217.016 23.8503C217.92 22.9161 219.027 22.2179 220.335 21.7557C221.642 21.2837 223.088 21.0476 224.671 21.0476C225.763 21.0476 226.85 21.1755 227.931 21.4312C229.013 21.6868 230.001 22.1097 230.896 22.6997C231.791 23.2799 232.509 24.0716 233.05 25.0746C233.601 26.0777 233.876 27.3315 233.876 28.8361V44H228.743V40.8876H228.566C228.241 41.5169 227.784 42.107 227.194 42.6577C226.614 43.1985 225.881 43.6361 224.996 43.9705C224.121 44.295 223.093 44.4573 221.913 44.4573ZM223.299 40.5335C224.371 40.5335 225.301 40.3221 226.087 39.8993C226.874 39.4666 227.479 38.8962 227.902 38.1882C228.334 37.4801 228.551 36.7082 228.551 35.8723V33.2024C228.384 33.34 228.098 33.4679 227.695 33.5859C227.302 33.7039 226.859 33.8071 226.368 33.8957C225.876 33.9842 225.389 34.0628 224.907 34.1317C224.425 34.2005 224.008 34.2595 223.654 34.3087C222.857 34.4168 222.144 34.5939 221.515 34.8397C220.885 35.0856 220.389 35.4297 220.025 35.8723C219.661 36.305 219.479 36.8655 219.479 37.5539C219.479 38.5373 219.838 39.2797 220.556 39.7812C221.274 40.2828 222.188 40.5335 223.299 40.5335ZM237.239 50.5789V39.6042H239.039C239.521 39.2306 239.924 38.7241 240.248 38.0849C240.573 37.4359 240.838 36.6737 241.045 35.7985C241.261 34.9135 241.438 33.9252 241.576 32.8336C241.713 31.7322 241.836 30.5472 241.945 29.2786L242.594 21.3427H258.967V39.6042H262.478V50.5789H257.315V44H242.49V50.5789H237.239ZM244.526 39.6042H253.863V25.6499H247.225L246.871 29.2786C246.675 31.6781 246.414 33.7334 246.09 35.4445C245.765 37.1556 245.244 38.5422 244.526 39.6042ZM276.347 44.4425C274.135 44.4425 272.217 43.9557 270.594 42.9822C268.972 42.0086 267.713 40.6466 266.818 38.8962C265.933 37.1458 265.491 35.1003 265.491 32.7598C265.491 30.4194 265.933 28.369 266.818 26.6087C267.713 24.8484 268.972 23.4815 270.594 22.508C272.217 21.5344 274.135 21.0476 276.347 21.0476C278.56 21.0476 280.478 21.5344 282.1 22.508C283.723 23.4815 284.977 24.8484 285.862 26.6087C286.757 28.369 287.204 30.4194 287.204 32.7598C287.204 35.1003 286.757 37.1458 285.862 38.8962C284.977 40.6466 283.723 42.0086 282.1 42.9822C280.478 43.9557 278.56 44.4425 276.347 44.4425ZM276.377 40.1648C277.577 40.1648 278.58 39.8353 279.386 39.1765C280.192 38.5078 280.792 37.6129 281.186 36.4918C281.589 35.3707 281.79 34.1218 281.79 32.7451C281.79 31.3585 281.589 30.1047 281.186 28.9836C280.792 27.8527 280.192 26.9529 279.386 26.2842C278.58 25.6155 277.577 25.2811 276.377 25.2811C275.148 25.2811 274.125 25.6155 273.309 26.2842C272.502 26.9529 271.897 27.8527 271.494 28.9836C271.101 30.1047 270.904 31.3585 270.904 32.7451C270.904 34.1218 271.101 35.3707 271.494 36.4918C271.897 37.6129 272.502 38.5078 273.309 39.1765C274.125 39.8353 275.148 40.1648 276.377 40.1648ZM291.736 52.4965V21.3427H296.987V25.0894H297.297C297.573 24.5387 297.961 23.9536 298.463 23.334C298.964 22.7047 299.643 22.1687 300.498 21.7262C301.354 21.2738 302.445 21.0476 303.773 21.0476C305.523 21.0476 307.102 21.4951 308.508 22.39C309.924 23.275 311.045 24.5878 311.871 26.3285C312.707 28.0592 313.125 30.1833 313.125 32.7008C313.125 35.1888 312.717 37.3031 311.901 39.0437C311.084 40.7843 309.973 42.1119 308.567 43.0264C307.161 43.941 305.568 44.3983 303.788 44.3983C302.49 44.3983 301.413 44.1819 300.557 43.7492C299.702 43.3165 299.013 42.7953 298.492 42.1856C297.981 41.5661 297.582 40.981 297.297 40.4303H297.076V52.4965H291.736ZM296.973 32.6713C296.973 34.1366 297.179 35.4199 297.592 36.5213C298.015 37.6227 298.62 38.4832 299.407 39.1027C300.203 39.7124 301.167 40.0173 302.298 40.0173C303.478 40.0173 304.466 39.7026 305.263 39.0732C306.059 38.434 306.659 37.5637 307.062 36.4623C307.475 35.3511 307.682 34.0874 307.682 32.6713C307.682 31.2651 307.48 30.0162 307.077 28.9246C306.674 27.833 306.074 26.9775 305.277 26.358C304.481 25.7384 303.488 25.4286 302.298 25.4286C301.157 25.4286 300.188 25.7286 299.392 26.3285C298.595 26.9283 297.991 27.7691 297.578 28.8509C297.174 29.9326 296.973 31.2061 296.973 32.6713ZM321.312 28.7181H327.994C330.885 28.7181 333.122 29.4212 334.705 30.8275C336.289 32.2337 337.085 34.0776 337.095 36.359C337.085 37.844 336.721 39.1617 336.004 40.3123C335.295 41.4628 334.263 42.3676 332.906 43.0264C331.559 43.6755 329.921 44 327.994 44H317.698V21.3427H322.846V39.619H327.994C329.154 39.619 330.108 39.324 330.855 38.7339C331.603 38.1341 331.977 37.367 331.977 36.4328C331.977 35.4494 331.603 34.6479 330.855 34.0284C330.108 33.4089 329.154 33.0991 327.994 33.0991H321.312V28.7181ZM339.913 44V21.3427H345.252V44H339.913Z" fill="black" fill-opacity="0.85"/>
</svg>
